<mxfile host="app.diagrams.net" agent="Mozilla/5.0 (Windows NT 10.0; Win64; x64) AppleWebKit/537.36 (KHTML, like Gecko) Chrome/132.0.0.0 Safari/537.36" version="26.0.10">
  <diagram name="페이지-1" id="d4Gz3poP1veIxUeRujSe">
    <mxGraphModel dx="2345" dy="1013" grid="1" gridSize="10" guides="1" tooltips="1" connect="1" arrows="1" fold="1" page="1" pageScale="1" pageWidth="827" pageHeight="1169" math="0" shadow="0">
      <root>
        <mxCell id="0" />
        <mxCell id="1" parent="0" />
        <mxCell id="oyrRPuZS6l0Z54OqcIEx-37" value="&lt;font style=&quot;font-size: 24px;&quot;&gt;고객&lt;/font&gt;" style="rounded=1;whiteSpace=wrap;html=1;" parent="1" vertex="1">
          <mxGeometry x="250" y="540" width="120" height="60" as="geometry" />
        </mxCell>
        <mxCell id="oyrRPuZS6l0Z54OqcIEx-38" value="&lt;font style=&quot;font-size: 24px;&quot;&gt;식당주인&lt;/font&gt;" style="rounded=1;whiteSpace=wrap;html=1;" parent="1" vertex="1">
          <mxGeometry x="1023" y="540" width="120" height="60" as="geometry" />
        </mxCell>
        <mxCell id="oyrRPuZS6l0Z54OqcIEx-39" value="&lt;font style=&quot;font-size: 24px;&quot;&gt;로봇&lt;/font&gt;" style="rounded=1;whiteSpace=wrap;html=1;" parent="1" vertex="1">
          <mxGeometry x="1606" y="540" width="120" height="60" as="geometry" />
        </mxCell>
        <mxCell id="oyrRPuZS6l0Z54OqcIEx-43" value="&lt;font style=&quot;font-size: 24px;&quot;&gt;서빙 로봇 도착시&amp;nbsp;&lt;/font&gt;&lt;div&gt;&lt;font style=&quot;font-size: 24px;&quot;&gt;도착 소리 내기&lt;/font&gt;&lt;/div&gt;" style="rounded=1;whiteSpace=wrap;html=1;fillColor=#FFFF33;" parent="1" vertex="1">
          <mxGeometry x="190" y="660" width="240" height="60" as="geometry" />
        </mxCell>
        <mxCell id="1cYp7X619CN_byNRO4ZG-34" style="edgeStyle=orthogonalEdgeStyle;rounded=0;orthogonalLoop=1;jettySize=auto;html=1;entryX=0;entryY=0.5;entryDx=0;entryDy=0;" parent="1" source="oyrRPuZS6l0Z54OqcIEx-44" target="1cYp7X619CN_byNRO4ZG-33" edge="1">
          <mxGeometry relative="1" as="geometry" />
        </mxCell>
        <mxCell id="oyrRPuZS6l0Z54OqcIEx-44" value="&lt;span style=&quot;font-size: 24px;&quot;&gt;데이터 베이스 조회&lt;/span&gt;" style="rounded=1;whiteSpace=wrap;html=1;" parent="1" vertex="1">
          <mxGeometry x="190" y="1110" width="240" height="60" as="geometry" />
        </mxCell>
        <mxCell id="oyrRPuZS6l0Z54OqcIEx-46" value="&lt;span style=&quot;font-size: 24px;&quot;&gt;데이터 베이스 저장&lt;/span&gt;" style="rounded=1;whiteSpace=wrap;html=1;" parent="1" vertex="1">
          <mxGeometry x="190" y="1050" width="240" height="60" as="geometry" />
        </mxCell>
        <mxCell id="1cYp7X619CN_byNRO4ZG-39" style="edgeStyle=orthogonalEdgeStyle;rounded=0;orthogonalLoop=1;jettySize=auto;html=1;entryX=0;entryY=0.5;entryDx=0;entryDy=0;" parent="1" source="1cYp7X619CN_byNRO4ZG-40" target="1cYp7X619CN_byNRO4ZG-38" edge="1">
          <mxGeometry relative="1" as="geometry" />
        </mxCell>
        <mxCell id="8eeaDe_UFbzmTPw2_FaF-5" style="edgeStyle=orthogonalEdgeStyle;rounded=0;orthogonalLoop=1;jettySize=auto;html=1;entryX=1;entryY=0.5;entryDx=0;entryDy=0;" parent="1" source="oyrRPuZS6l0Z54OqcIEx-47" target="8eeaDe_UFbzmTPw2_FaF-4" edge="1">
          <mxGeometry relative="1" as="geometry" />
        </mxCell>
        <mxCell id="oyrRPuZS6l0Z54OqcIEx-47" value="&lt;font style=&quot;font-size: 24px;&quot;&gt;서빙 로봇 작동 멈추거나 해당 위치로 이동&lt;/font&gt;" style="rounded=1;whiteSpace=wrap;html=1;" parent="1" vertex="1">
          <mxGeometry x="1293.5" y="820" width="240" height="60" as="geometry" />
        </mxCell>
        <mxCell id="oyrRPuZS6l0Z54OqcIEx-48" value="&lt;font style=&quot;font-size: 24px;&quot;&gt;MySQL&lt;/font&gt;" style="rounded=1;whiteSpace=wrap;html=1;" parent="1" vertex="1">
          <mxGeometry x="250" y="990" width="120" height="60" as="geometry" />
        </mxCell>
        <mxCell id="oyrRPuZS6l0Z54OqcIEx-49" value="&lt;font style=&quot;font-size: 24px;&quot;&gt;서빙 로봇 송수신&amp;nbsp;&lt;/font&gt;&lt;div&gt;&lt;font style=&quot;font-size: 24px;&quot;&gt;로깅 시스템은 위 내용에 들어가 있음&lt;/font&gt;&lt;/div&gt;" style="rounded=1;whiteSpace=wrap;html=1;fillColor=#FFFF33;" parent="1" vertex="1">
          <mxGeometry x="960" y="1060" width="240" height="100" as="geometry" />
        </mxCell>
        <mxCell id="1cYp7X619CN_byNRO4ZG-4" style="edgeStyle=orthogonalEdgeStyle;rounded=0;orthogonalLoop=1;jettySize=auto;html=1;" parent="1" source="1cYp7X619CN_byNRO4ZG-1" target="1cYp7X619CN_byNRO4ZG-3" edge="1">
          <mxGeometry relative="1" as="geometry" />
        </mxCell>
        <mxCell id="1cYp7X619CN_byNRO4ZG-1" value="&lt;span style=&quot;font-size: 24px;&quot;&gt;테이블 오더를 통한 주문&lt;/span&gt;" style="rounded=1;whiteSpace=wrap;html=1;" parent="1" vertex="1">
          <mxGeometry x="180" y="600" width="260" height="60" as="geometry" />
        </mxCell>
        <mxCell id="1cYp7X619CN_byNRO4ZG-37" style="edgeStyle=orthogonalEdgeStyle;rounded=0;orthogonalLoop=1;jettySize=auto;html=1;entryX=1;entryY=0.5;entryDx=0;entryDy=0;" parent="1" source="1cYp7X619CN_byNRO4ZG-2" target="oyrRPuZS6l0Z54OqcIEx-46" edge="1">
          <mxGeometry relative="1" as="geometry">
            <Array as="points">
              <mxPoint x="836" y="650" />
              <mxPoint x="836" y="1080" />
            </Array>
          </mxGeometry>
        </mxCell>
        <mxCell id="1cYp7X619CN_byNRO4ZG-2" value="&lt;span style=&quot;font-size: 24px;&quot;&gt;주방 디스플레이를 통한 주문 받기&lt;/span&gt;" style="rounded=1;whiteSpace=wrap;html=1;" parent="1" vertex="1">
          <mxGeometry x="960" y="600" width="260" height="60" as="geometry" />
        </mxCell>
        <mxCell id="1cYp7X619CN_byNRO4ZG-8" style="edgeStyle=orthogonalEdgeStyle;rounded=0;orthogonalLoop=1;jettySize=auto;html=1;" parent="1" source="1cYp7X619CN_byNRO4ZG-3" target="1cYp7X619CN_byNRO4ZG-2" edge="1">
          <mxGeometry relative="1" as="geometry" />
        </mxCell>
        <mxCell id="1cYp7X619CN_byNRO4ZG-3" value="&lt;span style=&quot;font-size: 24px;&quot;&gt;중간 집계 API&lt;/span&gt;" style="rounded=1;whiteSpace=wrap;html=1;" parent="1" vertex="1">
          <mxGeometry x="560" y="600" width="240" height="60" as="geometry" />
        </mxCell>
        <mxCell id="1cYp7X619CN_byNRO4ZG-6" value="&lt;font style=&quot;font-size: 48px;&quot;&gt;topic&lt;/font&gt;" style="text;html=1;align=center;verticalAlign=middle;resizable=0;points=[];autosize=1;strokeColor=none;fillColor=none;" parent="1" vertex="1">
          <mxGeometry x="440" y="560" width="120" height="70" as="geometry" />
        </mxCell>
        <mxCell id="1cYp7X619CN_byNRO4ZG-7" value="&lt;font style=&quot;font-size: 48px;&quot;&gt;service&lt;/font&gt;" style="text;html=1;align=center;verticalAlign=middle;resizable=0;points=[];autosize=1;strokeColor=none;fillColor=none;" parent="1" vertex="1">
          <mxGeometry x="789" y="560" width="180" height="70" as="geometry" />
        </mxCell>
        <mxCell id="1cYp7X619CN_byNRO4ZG-11" style="edgeStyle=orthogonalEdgeStyle;rounded=0;orthogonalLoop=1;jettySize=auto;html=1;entryX=1;entryY=0.5;entryDx=0;entryDy=0;" parent="1" source="1cYp7X619CN_byNRO4ZG-12" target="oyrRPuZS6l0Z54OqcIEx-43" edge="1">
          <mxGeometry relative="1" as="geometry" />
        </mxCell>
        <mxCell id="1cYp7X619CN_byNRO4ZG-9" value="&lt;span style=&quot;font-size: 24px;&quot;&gt;서빙 로봇 도착 확인 아림&lt;/span&gt;" style="rounded=1;whiteSpace=wrap;html=1;fillColor=#FFFF33;" parent="1" vertex="1">
          <mxGeometry x="963" y="660" width="240" height="60" as="geometry" />
        </mxCell>
        <mxCell id="8eeaDe_UFbzmTPw2_FaF-11" style="edgeStyle=orthogonalEdgeStyle;rounded=0;orthogonalLoop=1;jettySize=auto;html=1;entryX=0.013;entryY=0.333;entryDx=0;entryDy=0;entryPerimeter=0;" parent="1" source="1cYp7X619CN_byNRO4ZG-10" target="1cYp7X619CN_byNRO4ZG-25" edge="1">
          <mxGeometry relative="1" as="geometry">
            <Array as="points">
              <mxPoint x="836" y="800" />
              <mxPoint x="836" y="800" />
            </Array>
          </mxGeometry>
        </mxCell>
        <mxCell id="1cYp7X619CN_byNRO4ZG-10" value="&lt;span style=&quot;font-size: 24px;&quot;&gt;서빙 로봇 도착 후 UI를 닫는지 시간 초가 지났는지 트랙킹&lt;/span&gt;" style="rounded=1;whiteSpace=wrap;html=1;fillColor=#FFFF33;" parent="1" vertex="1">
          <mxGeometry x="190" y="720" width="240" height="90" as="geometry" />
        </mxCell>
        <mxCell id="1cYp7X619CN_byNRO4ZG-14" style="edgeStyle=orthogonalEdgeStyle;rounded=0;orthogonalLoop=1;jettySize=auto;html=1;entryX=1;entryY=0.5;entryDx=0;entryDy=0;" parent="1" source="1cYp7X619CN_byNRO4ZG-15" target="1cYp7X619CN_byNRO4ZG-10" edge="1">
          <mxGeometry relative="1" as="geometry" />
        </mxCell>
        <mxCell id="1cYp7X619CN_byNRO4ZG-13" value="&lt;span style=&quot;font-size: 24px;&quot;&gt;서빙로봇 도착 확인 알림&lt;/span&gt;" style="rounded=1;whiteSpace=wrap;html=1;fillColor=#FFFF33;" parent="1" vertex="1">
          <mxGeometry x="963" y="720" width="240" height="60" as="geometry" />
        </mxCell>
        <mxCell id="1cYp7X619CN_byNRO4ZG-20" style="edgeStyle=orthogonalEdgeStyle;rounded=0;orthogonalLoop=1;jettySize=auto;html=1;entryX=0;entryY=0.5;entryDx=0;entryDy=0;" parent="1" source="1cYp7X619CN_byNRO4ZG-17" target="oyrRPuZS6l0Z54OqcIEx-47" edge="1">
          <mxGeometry relative="1" as="geometry" />
        </mxCell>
        <mxCell id="1cYp7X619CN_byNRO4ZG-17" value="&lt;font style=&quot;font-size: 24px;&quot;&gt;서빙 로봇 전원 끄기&lt;/font&gt;" style="rounded=1;whiteSpace=wrap;html=1;fillColor=#FFFF33;" parent="1" vertex="1">
          <mxGeometry x="963" y="840" width="240" height="60" as="geometry" />
        </mxCell>
        <mxCell id="1cYp7X619CN_byNRO4ZG-21" style="edgeStyle=orthogonalEdgeStyle;rounded=0;orthogonalLoop=1;jettySize=auto;html=1;entryX=0;entryY=0.5;entryDx=0;entryDy=0;" parent="1" source="1cYp7X619CN_byNRO4ZG-18" target="oyrRPuZS6l0Z54OqcIEx-47" edge="1">
          <mxGeometry relative="1" as="geometry" />
        </mxCell>
        <mxCell id="1cYp7X619CN_byNRO4ZG-18" value="&lt;span style=&quot;font-size: 24px;&quot;&gt;서빙 로봇 전원 키기&lt;/span&gt;" style="rounded=1;whiteSpace=wrap;html=1;fillColor=#FFFF33;" parent="1" vertex="1">
          <mxGeometry x="963" y="900" width="240" height="60" as="geometry" />
        </mxCell>
        <mxCell id="1cYp7X619CN_byNRO4ZG-22" value="&lt;font style=&quot;font-size: 48px;&quot;&gt;topic&lt;/font&gt;" style="text;html=1;align=center;verticalAlign=middle;resizable=0;points=[];autosize=1;strokeColor=none;fillColor=none;" parent="1" vertex="1">
          <mxGeometry x="1241.5" y="880" width="120" height="70" as="geometry" />
        </mxCell>
        <mxCell id="1cYp7X619CN_byNRO4ZG-24" style="edgeStyle=orthogonalEdgeStyle;rounded=0;orthogonalLoop=1;jettySize=auto;html=1;entryX=0;entryY=0.5;entryDx=0;entryDy=0;" parent="1" source="1cYp7X619CN_byNRO4ZG-23" target="oyrRPuZS6l0Z54OqcIEx-47" edge="1">
          <mxGeometry relative="1" as="geometry" />
        </mxCell>
        <mxCell id="1cYp7X619CN_byNRO4ZG-23" value="&lt;span style=&quot;font-size: 24px;&quot;&gt;서빙 로봇 이동시키기&lt;/span&gt;" style="rounded=1;whiteSpace=wrap;html=1;fillColor=#FFFF33;" parent="1" vertex="1">
          <mxGeometry x="963" y="950" width="240" height="60" as="geometry" />
        </mxCell>
        <mxCell id="1cYp7X619CN_byNRO4ZG-28" style="edgeStyle=orthogonalEdgeStyle;rounded=0;orthogonalLoop=1;jettySize=auto;html=1;entryX=1;entryY=0.5;entryDx=0;entryDy=0;" parent="1" source="1cYp7X619CN_byNRO4ZG-25" target="1cYp7X619CN_byNRO4ZG-13" edge="1">
          <mxGeometry relative="1" as="geometry">
            <mxPoint x="1306" y="740" as="targetPoint" />
            <Array as="points">
              <mxPoint x="1246" y="810" />
              <mxPoint x="1246" y="750" />
            </Array>
          </mxGeometry>
        </mxCell>
        <mxCell id="1cYp7X619CN_byNRO4ZG-29" style="edgeStyle=orthogonalEdgeStyle;rounded=0;orthogonalLoop=1;jettySize=auto;html=1;entryX=0;entryY=0.5;entryDx=0;entryDy=0;" parent="1" source="1cYp7X619CN_byNRO4ZG-25" target="1cYp7X619CN_byNRO4ZG-17" edge="1">
          <mxGeometry relative="1" as="geometry">
            <Array as="points">
              <mxPoint x="936" y="810" />
              <mxPoint x="936" y="870" />
            </Array>
          </mxGeometry>
        </mxCell>
        <mxCell id="1cYp7X619CN_byNRO4ZG-31" style="edgeStyle=orthogonalEdgeStyle;rounded=0;orthogonalLoop=1;jettySize=auto;html=1;entryX=0;entryY=0.5;entryDx=0;entryDy=0;" parent="1" source="1cYp7X619CN_byNRO4ZG-25" target="1cYp7X619CN_byNRO4ZG-18" edge="1">
          <mxGeometry relative="1" as="geometry">
            <Array as="points">
              <mxPoint x="936" y="810" />
              <mxPoint x="936" y="930" />
            </Array>
          </mxGeometry>
        </mxCell>
        <mxCell id="1cYp7X619CN_byNRO4ZG-32" style="edgeStyle=orthogonalEdgeStyle;rounded=0;orthogonalLoop=1;jettySize=auto;html=1;entryX=0;entryY=0.5;entryDx=0;entryDy=0;" parent="1" source="1cYp7X619CN_byNRO4ZG-25" target="1cYp7X619CN_byNRO4ZG-23" edge="1">
          <mxGeometry relative="1" as="geometry">
            <Array as="points">
              <mxPoint x="936" y="810" />
              <mxPoint x="936" y="980" />
            </Array>
          </mxGeometry>
        </mxCell>
        <mxCell id="1cYp7X619CN_byNRO4ZG-25" value="&lt;font style=&quot;font-size: 24px;&quot;&gt;서빙 로봇 경로에 따른 이동 알고리즘&lt;/font&gt;" style="rounded=1;whiteSpace=wrap;html=1;fillColor=#FFFF33;" parent="1" vertex="1">
          <mxGeometry x="963" y="780" width="240" height="60" as="geometry" />
        </mxCell>
        <mxCell id="1cYp7X619CN_byNRO4ZG-33" value="&lt;span style=&quot;font-size: 24px;&quot;&gt;일일 매출, 선호 메뉴등 확인&lt;/span&gt;" style="rounded=1;whiteSpace=wrap;html=1;" parent="1" vertex="1">
          <mxGeometry x="960" y="1160" width="240" height="60" as="geometry" />
        </mxCell>
        <mxCell id="1cYp7X619CN_byNRO4ZG-35" value="&lt;span style=&quot;font-size: 24px;&quot;&gt;UI 제작&lt;/span&gt;" style="rounded=1;whiteSpace=wrap;html=1;" parent="1" vertex="1">
          <mxGeometry x="960" y="1220" width="240" height="60" as="geometry" />
        </mxCell>
        <mxCell id="1cYp7X619CN_byNRO4ZG-36" value="&lt;span style=&quot;font-size: 24px;&quot;&gt;UI 제작&lt;/span&gt;" style="rounded=1;whiteSpace=wrap;html=1;" parent="1" vertex="1">
          <mxGeometry x="190" y="810" width="240" height="60" as="geometry" />
        </mxCell>
        <mxCell id="1cYp7X619CN_byNRO4ZG-38" value="&lt;span style=&quot;font-size: 24px;&quot;&gt;로봇 작동&lt;/span&gt;" style="rounded=1;whiteSpace=wrap;html=1;" parent="1" vertex="1">
          <mxGeometry x="1556" y="610" width="240" height="60" as="geometry" />
        </mxCell>
        <mxCell id="1cYp7X619CN_byNRO4ZG-41" value="" style="edgeStyle=orthogonalEdgeStyle;rounded=0;orthogonalLoop=1;jettySize=auto;html=1;entryX=0;entryY=0.5;entryDx=0;entryDy=0;" parent="1" source="oyrRPuZS6l0Z54OqcIEx-47" target="1cYp7X619CN_byNRO4ZG-40" edge="1">
          <mxGeometry relative="1" as="geometry">
            <mxPoint x="1534" y="850" as="sourcePoint" />
            <mxPoint x="1556" y="640" as="targetPoint" />
          </mxGeometry>
        </mxCell>
        <mxCell id="1cYp7X619CN_byNRO4ZG-40" value="&lt;span style=&quot;font-size: 48px;&quot;&gt;action&lt;/span&gt;" style="text;html=1;align=center;verticalAlign=middle;resizable=0;points=[];autosize=1;strokeColor=none;fillColor=none;" parent="1" vertex="1">
          <mxGeometry x="1456" y="710" width="150" height="70" as="geometry" />
        </mxCell>
        <mxCell id="1cYp7X619CN_byNRO4ZG-42" value="" style="edgeStyle=orthogonalEdgeStyle;rounded=0;orthogonalLoop=1;jettySize=auto;html=1;entryX=1;entryY=0.5;entryDx=0;entryDy=0;" parent="1" source="1cYp7X619CN_byNRO4ZG-13" target="1cYp7X619CN_byNRO4ZG-15" edge="1">
          <mxGeometry relative="1" as="geometry">
            <mxPoint x="963" y="750" as="sourcePoint" />
            <mxPoint x="430" y="765" as="targetPoint" />
          </mxGeometry>
        </mxCell>
        <mxCell id="1cYp7X619CN_byNRO4ZG-15" value="&lt;span style=&quot;font-size: 48px;&quot;&gt;action&lt;/span&gt;" style="text;html=1;align=center;verticalAlign=middle;resizable=0;points=[];autosize=1;strokeColor=none;fillColor=none;" parent="1" vertex="1">
          <mxGeometry x="613" y="725" width="150" height="70" as="geometry" />
        </mxCell>
        <mxCell id="1cYp7X619CN_byNRO4ZG-43" value="" style="edgeStyle=orthogonalEdgeStyle;rounded=0;orthogonalLoop=1;jettySize=auto;html=1;entryX=1;entryY=0.5;entryDx=0;entryDy=0;" parent="1" source="1cYp7X619CN_byNRO4ZG-9" target="1cYp7X619CN_byNRO4ZG-12" edge="1">
          <mxGeometry relative="1" as="geometry">
            <mxPoint x="963" y="690" as="sourcePoint" />
            <mxPoint x="430" y="690" as="targetPoint" />
          </mxGeometry>
        </mxCell>
        <mxCell id="1cYp7X619CN_byNRO4ZG-12" value="&lt;font style=&quot;font-size: 48px;&quot;&gt;topic&lt;/font&gt;" style="text;html=1;align=center;verticalAlign=middle;resizable=0;points=[];autosize=1;strokeColor=none;fillColor=none;" parent="1" vertex="1">
          <mxGeometry x="628" y="655" width="120" height="70" as="geometry" />
        </mxCell>
        <mxCell id="8eeaDe_UFbzmTPw2_FaF-2" value="&lt;span style=&quot;font-size: 24px;&quot;&gt;통신할 때 -&amp;gt; node를 만들어서 쓰레드를 사용해 통신한다.&lt;/span&gt;" style="rounded=1;whiteSpace=wrap;html=1;" parent="1" vertex="1">
          <mxGeometry x="520" y="1250" width="320" height="80" as="geometry" />
        </mxCell>
        <mxCell id="8eeaDe_UFbzmTPw2_FaF-8" style="edgeStyle=orthogonalEdgeStyle;rounded=0;orthogonalLoop=1;jettySize=auto;html=1;entryX=0;entryY=0.75;entryDx=0;entryDy=0;" parent="1" source="8eeaDe_UFbzmTPw2_FaF-4" target="1cYp7X619CN_byNRO4ZG-9" edge="1">
          <mxGeometry relative="1" as="geometry">
            <Array as="points">
              <mxPoint x="866" y="1035" />
              <mxPoint x="866" y="710" />
              <mxPoint x="963" y="710" />
            </Array>
          </mxGeometry>
        </mxCell>
        <mxCell id="8eeaDe_UFbzmTPw2_FaF-10" style="edgeStyle=orthogonalEdgeStyle;rounded=0;orthogonalLoop=1;jettySize=auto;html=1;entryX=0;entryY=0.75;entryDx=0;entryDy=0;" parent="1" source="8eeaDe_UFbzmTPw2_FaF-4" target="1cYp7X619CN_byNRO4ZG-13" edge="1">
          <mxGeometry relative="1" as="geometry">
            <Array as="points">
              <mxPoint x="866" y="1035" />
              <mxPoint x="866" y="765" />
            </Array>
          </mxGeometry>
        </mxCell>
        <mxCell id="8eeaDe_UFbzmTPw2_FaF-4" value="&lt;span style=&quot;font-size: 24px;&quot;&gt;서빙 로봇 위치 트래킹&lt;/span&gt;" style="rounded=1;whiteSpace=wrap;html=1;fillColor=#FFFF33;" parent="1" vertex="1">
          <mxGeometry x="960" y="1010" width="240" height="50" as="geometry" />
        </mxCell>
      </root>
    </mxGraphModel>
  </diagram>
</mxfile>
